<svg xmlns="http://www.w3.org/2000/svg" viewBox="0 0 512 512">

  <rect width="512" height="512" fill="#1a1a2e"/>

  <rect x="92" y="74" width="332" height="384" rx="20" fill="black" opacity="0.25"/>

  <rect x="86" y="68" width="340" height="384" rx="20" fill="#f4f4f4"/>

  <rect x="86" y="68" width="340" height="100" rx="20" fill="#0ea5e9"/>
  <rect x="86" y="136" width="340" height="32" fill="#0ea5e9"/>

  <rect x="118" y="90" width="180" height="14" rx="7" fill="white" opacity="0.95"/>
  <rect x="118" y="112" width="120" height="10" rx="5" fill="white" opacity="0.6"/>

  <rect x="104" y="186" width="148" height="118" rx="8" fill="#e2e2e2"/>
  <rect x="260" y="186" width="148" height="118" rx="8" fill="#e6e6e6"/>

  <rect x="104" y="314" width="304" height="118" rx="8" fill="#e4e4e4"/>

  <!-- server antenna -->
  <circle cx="392" cy="84" r="10" fill="white" opacity="0.9"/>
  <line x1="392" y1="74" x2="392" y2="50" stroke="white" stroke-width="5" stroke-linecap="round" opacity="0.9"/>
  <path d="M374 62 Q392 48 410 62" stroke="white" stroke-width="4" fill="none" stroke-linecap="round" opacity="0.75"/>
  <path d="M365 53 Q392 35 419 53" stroke="white" stroke-width="3.5" fill="none" stroke-linecap="round" opacity="0.5"/>

</svg>
